<?xml version="1.0" encoding="UTF-8" standalone="no"?>
<svg width="1000" height="500" viewBox="0 0 1000 500" xmlns="http://www.w3.org/2000/svg">
  <path d="M150,50 L850,50 L850,450 L150,450 Z" fill="none" stroke="#2a2a2a" stroke-width="2"/>
  <!-- Simplified world map paths -->
  <path d="M200,100 C300,80 400,120 500,100 S700,150 800,100" stroke="#2a2a2a" fill="none"/>
  <path d="M250,200 C350,180 450,220 550,200 S750,250 850,200" stroke="#2a2a2a" fill="none"/>
  <path d="M200,300 C300,280 400,320 500,300 S700,350 800,300" stroke="#2a2a2a" fill="none"/>
  <!-- Continents -->
  <path d="M300,150 Q400,100 500,150 T700,150" fill="#2a2a2a" opacity="0.1"/>
  <path d="M250,250 Q350,200 450,250 T650,250" fill="#2a2a2a" opacity="0.1"/>
  <path d="M350,350 Q450,300 550,350 T750,350" fill="#2a2a2a" opacity="0.1"/>
</svg>
