<svg width="20" height="20" viewBox="0 0 20 20" fill="none" xmlns="http://www.w3.org/2000/svg">
<path d="M12.5 14.1667H16.6666L15.4959 12.9959C15.1784 12.6784 15 12.2477 15 11.7987V9.16667C15 6.98964 13.6086 5.13757 11.6666 4.45118V4.16667C11.6666 3.24619 10.9205 2.5 9.99998 2.5C9.0795 2.5 8.33331 3.24619 8.33331 4.16667V4.45118C6.39133 5.13757 4.99998 6.98964 4.99998 9.16667V11.7987C4.99998 12.2477 4.8216 12.6784 4.50409 12.9959L3.33331 14.1667H7.49998M12.5 14.1667V15C12.5 16.3807 11.3807 17.5 9.99998 17.5C8.61927 17.5 7.49998 16.3807 7.49998 15V14.1667M12.5 14.1667H7.49998" stroke="#797979" stroke-width="1.5" stroke-linecap="round" stroke-linejoin="round"/>
</svg>
