<svg width="20" height="20" viewBox="0 0 20 20" fill="none" xmlns="http://www.w3.org/2000/svg">
<path d="M14.1666 11.6667V16.6667M11.6666 14.1667H16.6666M4.99998 8.33334H6.66665C7.58712 8.33334 8.33331 7.58715 8.33331 6.66668V5.00001C8.33331 4.07954 7.58712 3.33334 6.66665 3.33334H4.99998C4.07951 3.33334 3.33331 4.07954 3.33331 5.00001V6.66668C3.33331 7.58715 4.07951 8.33334 4.99998 8.33334ZM13.3333 8.33334H15C15.9205 8.33334 16.6666 7.58715 16.6666 6.66668V5.00001C16.6666 4.07954 15.9205 3.33334 15 3.33334H13.3333C12.4128 3.33334 11.6666 4.07954 11.6666 5.00001V6.66668C11.6666 7.58715 12.4128 8.33334 13.3333 8.33334ZM4.99998 16.6667H6.66665C7.58712 16.6667 8.33331 15.9205 8.33331 15V13.3333C8.33331 12.4129 7.58712 11.6667 6.66665 11.6667H4.99998C4.07951 11.6667 3.33331 12.4129 3.33331 13.3333V15C3.33331 15.9205 4.07951 16.6667 4.99998 16.6667Z" stroke="#A3A7AC" stroke-width="1.5" stroke-linecap="round" stroke-linejoin="round"/>
</svg>
