<svg width="20" height="20" viewBox="0 0 20 20" fill="none" xmlns="http://www.w3.org/2000/svg">
<path d="M10.8333 13.3333V5.00001C10.8333 4.53977 10.4602 4.16667 10 4.16667H3.33333C2.8731 4.16667 2.5 4.53977 2.5 5V13.3333C2.5 13.7936 2.8731 14.1667 3.33333 14.1667H4.16667M10.8333 13.3333C10.8333 13.7936 10.4602 14.1667 10 14.1667H7.5M10.8333 13.3333L10.8333 6.66667C10.8333 6.20643 11.2064 5.83334 11.6667 5.83334H13.8215C14.0425 5.83334 14.2545 5.92114 14.4107 6.07742L17.2559 8.92259C17.4122 9.07887 17.5 9.29084 17.5 9.51185V13.3333C17.5 13.7936 17.1269 14.1667 16.6667 14.1667H15.8333M10.8333 13.3333C10.8333 13.7936 11.2064 14.1667 11.6667 14.1667H12.5M4.16667 14.1667C4.16667 15.0871 4.91286 15.8333 5.83333 15.8333C6.75381 15.8333 7.5 15.0871 7.5 14.1667M4.16667 14.1667C4.16667 13.2462 4.91286 12.5 5.83333 12.5C6.75381 12.5 7.5 13.2462 7.5 14.1667M12.5 14.1667C12.5 15.0871 13.2462 15.8333 14.1667 15.8333C15.0871 15.8333 15.8333 15.0871 15.8333 14.1667M12.5 14.1667C12.5 13.2462 13.2462 12.5 14.1667 12.5C15.0871 12.5 15.8333 13.2462 15.8333 14.1667" stroke="#797979" stroke-width="1.5"/>
</svg>
