<?xml version="1.0" encoding="UTF-8"?>
<svg xmlns="http://www.w3.org/2000/svg" viewBox="0 0 48 48">
  <path fill="#4285F4" d="M24.4321 8.9C24.4321 7.85 25.2821 7 26.3321 7H41.9321C43.0321 7 43.9321 7.85 43.9321 8.9V39.1C43.9321 40.15 43.0821 41 41.9821 41H26.3321C25.2321 41 24.4321 40.15 24.4321 39.1V8.9Z"/>
  <path fill="#34A853" d="M4.9321 8.9C4.9321 7.85 5.7821 7 6.8321 7H22.4321C23.5321 7 24.4321 7.85 24.4321 8.9V39.1C24.4321 40.15 23.5821 41 22.4821 41H6.8321C5.7321 41 4.9321 40.15 4.9321 39.1V8.9Z"/>
  <path fill="#FBBC04" d="M24.4321 21.5L43.9321 7H24.4321V21.5Z"/>
  <path fill="#EA4335" d="M24.4321 21.5L43.9321 41H24.4321V21.5Z"/>
</svg>
