<svg width="20" height="20" viewBox="0 0 20 20" fill="none" xmlns="http://www.w3.org/2000/svg">
<path d="M16.6666 10.8333V5.00001C16.6666 4.07954 15.9205 3.33334 15 3.33334H4.99998C4.07951 3.33334 3.33331 4.07954 3.33331 5.00001V10.8333M16.6666 10.8333V15C16.6666 15.9205 15.9205 16.6667 15 16.6667H4.99998C4.07951 16.6667 3.33331 15.9205 3.33331 15V10.8333M16.6666 10.8333H14.5118C14.2908 10.8333 14.0788 10.9211 13.9226 11.0774L11.9107 13.0893C11.7544 13.2455 11.5425 13.3333 11.3215 13.3333H8.67849C8.45748 13.3333 8.24552 13.2455 8.08924 13.0893L6.07739 11.0774C5.92111 10.9211 5.70915 10.8333 5.48813 10.8333H3.33331" stroke="#797979" stroke-width="1.5" stroke-linecap="round" stroke-linejoin="round"/>
</svg>
