<svg id="SvgjsSvg1001" width="288" height="288" xmlns="http://www.w3.org/2000/svg" version="1.1" xmlns:xlink="http://www.w3.org/1999/xlink" xmlns:svgjs="http://svgjs.com/svgjs"><defs id="SvgjsDefs1002"></defs><g id="SvgjsG1008"><svg xmlns="http://www.w3.org/2000/svg" fill="none" viewBox="0 0 221 30" width="288" height="288"><g clip-path="url(#a)"><path fill="#25110a" fill-rule="evenodd" d="M137.012 17.5238C140.373-1.31329 112.549-5.1104 109.677 12.5276 106.606 31.3761 133.891 35.0304 137.012 17.5238zM115.154 16.4389C114.172 11.614 117.987 7.30871 121.948 6.74913 126.909 6.05252 130.973 9.30148 131.615 13.544 133.357 24.981 117.181 26.397 115.154 16.4332V16.4389zM.675401 28.4812C6.05623 30.1028 5.30133 26.3685 5.30133 22.2345 5.30133 18.7115 5.49431 14.5775 5.24457 11.1287 6.52734 11.5683 6.68059 12.4819 7.42982 13.3784L18.1347 26.1629C19.6445 28.2014 21.0749 29.6289 23.981 28.2185 24.5883 25.4777 24.2534 18.0434 24.2591 14.6174 24.2591 10.8946 24.9686 4.21964 23.6177 1.50171 22.0455 1.08489 20.4846 1.13628 19.3323 2.08983 18.4526 4.37952 19.0429 15.965 19.0769 19.2254L6.73735 4.6536C6.0392 3.80282 3.34311-.10849 1.23165 1.31899-.715215 3.95698.232674 10.6947.226998 14.6231.226998 17.9235-.232756 26.0544.675401 28.4812zM99.8235 17.8892C105.636 16.5246 106.697 10.6548 105.289 7.00039 103.496 2.3468 99.1197 1.28475 93.018 1.3704 82.7785 1.51314 84.2826.0114306 84.2713 10.6376 84.2713 14.6631 83.8456 25.1009 84.6062 28.19 86.36 28.8809 87.3079 28.9951 89.1469 28.19 89.6691 25.9003 89.3683 22.0461 89.4364 19.3339L94.4597 19.2197C99.7383 24.4728 100.408 30.7195 105.755 28.2071 106.873 24.3186 102.071 22.2402 99.8235 17.8892zM89.4762 6.34375C93.6139 6.19529 100.533 5.3388 100.55 10.2722 100.561 15.4111 94.0567 14.3491 89.4535 14.2349L89.4818 6.33804 89.4762 6.34375zM34.7597 6.36087C43.1772 5.27028 53.3486 8.69624 49.9714 1.79293 47.7066 1.10202 42.8594 1.37039 40.0497 1.37039 28.6467 1.37039 29.7195.416832 29.6911 8.09669 29.6854 10.3921 29.674 12.6875 29.674 14.9829 29.6627 31.3932 26.9155 28.6696 42.5699 28.6182 46.7133 28.6068 52.0261 29.823 50.2325 24.2615 47.0993 22.914 38.96 24.2387 34.7427 23.6677L34.8505 17.3696C38.4434 16.9756 43.5064 17.7979 46.8155 17.0442 49.2051 14.6003 47.8485 12.5333 44.0286 12.5276 41.1395 12.5276 37.5523 12.7275 34.7597 12.402V6.35516 6.36087zM206.174 28.9208C209.517 29.2749 210.193 26.2315 211.181 24.0103 213.808 18.0948 218.037 10.7804 220.608 4.83633 222.385.736597 217.714.216992 215.971 2.01562 214.319 3.71718 207.61 19.3396 206.889 21.4465 206.021 20.5958 201.895 10.5177 200.856 8.37649 200.084 6.78342 198.489 2.70652 197.626 1.81577 196.048.199863 192.069 1.04493 192.688 3.89419L201.934 23.5992C202.962 25.7975 203.751 28.6582 206.174 28.9151M59.3027 1.47888C54.024.359736 55.0173 3.4431 55.0287 7.74268 55.04 11.0316 54.796 15.0857 55.0684 18.2718 56.249 31.8843 74.5484 33.1633 78.2491 21.1496 79.2254 17.9749 79.2367 4.21965 78.3399 1.51314 76.8642 1.19339 75.6382.759432 74.7527 2.06701 71.5912 5.0533 79.3332 24.7526 66.7155 24.6327 55.6019 24.5299 61.8512 8.01105 59.3027 1.47888zM146.083 1.52456C142.501.519609 141.394 1.47317 141.406 5.17892L141.338 22.5999C141.321 25.7804 140.708 28.3555 144.159 28.6125 146.804 28.8066 150.436 28.5725 153.2 28.5782 155.999 28.5782 159.603 29.2234 160.312 26.8139 161.902 21.4237 153.479 24.0503 146.809 23.268 146.849 18.5516 147.683 4.5394 146.083 1.53027" clip-rule="evenodd" class="colorfff svgShape"></path><path fill="url(#b)" fill-rule="evenodd" d="M176.457 28.2353C184.027 28.2353 190.163 21.9146 190.163 14.1176C190.163 6.32069 184.027 0 176.457 0C168.888 0 162.752 6.32069 162.752 14.1176C162.752 21.9146 168.888 28.2353 176.457 28.2353ZM176.457 20.3922C179.822 20.3922 182.549 17.583 182.549 14.1177C182.549 10.6523 179.822 7.84315 176.457 7.84315C173.093 7.84315 170.366 10.6523 170.366 14.1177C170.366 17.583 173.093 20.3922 176.457 20.3922Z" clip-rule="evenodd"></path></g><defs><linearGradient id="b" x1="172.461" x2="181.351" y1="3.622" y2="25.611" gradientUnits="userSpaceOnUse"><stop stop-color="#4592af" class="stopColor1AEFED svgShape"></stop><stop offset="1" stop-color="#0a2738" class="stopColor1047D6 svgShape"></stop></linearGradient><clipPath id="a"><rect width="221" height="30" fill="#25110a" class="colorfff svgShape"></rect></clipPath></defs></svg></g></svg>