<?xml version="1.0" encoding="UTF-8"?>
<svg width="24" height="24" viewBox="0 0 24 24" fill="none" xmlns="http://www.w3.org/2000/svg">
    <path d="M20.61 4L13.03 8.94L14.23 5.63L20.61 4Z" fill="#E17726"/>
    <path d="M3.39 4L10.89 9L9.77 5.63L3.39 4Z" fill="#E27625"/>
    <path d="M17.89 16.32L15.89 19.32L20.11 20.44L21.39 16.44L17.89 16.32Z" fill="#E27625"/>
    <path d="M2.61 16.44L3.89 20.44L8.11 19.32L6.11 16.32L2.61 16.44Z" fill="#E27625"/>
    <path d="M7.89 11.32L6.89 13.13L11.03 13.32L10.89 8.82L7.89 11.32Z" fill="#E27625"/>
    <path d="M16.11 11.32L13.03 8.75L12.97 13.32L17.11 13.13L16.11 11.32Z" fill="#E27625"/>
    <path d="M8.11 19.32L10.77 18.07L8.48 16.47L8.11 19.32Z" fill="#E27625"/>
    <path d="M13.23 18.07L15.89 19.32L15.52 16.47L13.23 18.07Z" fill="#E27625"/>
</svg>
