<?xml version="1.0" encoding="UTF-8"?>
<svg width="24" height="24" viewBox="0 0 24 24" fill="none" xmlns="http://www.w3.org/2000/svg">
    <path d="M19.9995 17.3228V15.4919C19.9995 14.5707 19.2547 13.8259 18.3335 13.8259H6.44095C5.51974 13.8259 4.77496 13.0811 4.77496 12.1599V6.44095C4.77496 5.51974 5.51974 4.77496 6.44095 4.77496H17.6668C18.588 4.77496 19.3328 5.51974 19.3328 6.44095V8.27183C19.3328 9.19304 20.0776 9.93782 20.9988 9.93782C21.92 9.93782 22.6648 9.19304 22.6648 8.27183V6.44095C22.6648 3.67371 20.434 1.44287 17.6668 1.44287H6.44095C3.67371 1.44287 1.44287 3.67371 1.44287 6.44095V12.1599C1.44287 14.9271 3.67371 17.158 6.44095 17.158H18.3335C19.2547 17.158 19.9995 16.4132 19.9995 15.4919V17.3228Z" fill="#AB9FF2"/>
    <path d="M17.0001 19.9995H5.10756C4.18635 19.9995 3.44157 19.2547 3.44157 18.3335V16.5026C3.44157 15.5814 2.69679 14.8366 1.77558 14.8366C0.854366 14.8366 0.109589 15.5814 0.109589 16.5026V18.3335C0.109589 21.1007 2.34043 23.3316 5.10756 23.3316H17.0001C19.7674 23.3316 21.9982 21.1007 21.9982 18.3335V12.6146C21.9982 9.84734 19.7674 7.6165 17.0001 7.6165H5.10756C4.18635 7.6165 3.44157 8.36128 3.44157 9.28249V11.1134C3.44157 12.0346 4.18635 12.7794 5.10756 12.7794H17.0001C17.9213 12.7794 18.6661 13.5241 18.6661 14.4454V16.2762C18.6661 17.1974 19.4109 17.9422 20.3321 17.9422C21.2533 17.9422 21.9982 17.1974 21.9982 16.2762V14.4454C21.9982 11.6781 19.7674 9.44728 17.0001 9.44728H5.10756" fill="#AB9FF2"/>
</svg>
