<?xml version="1.0" encoding="UTF-8"?>
<svg width="24" height="24" viewBox="0 0 24 24" fill="none" xmlns="http://www.w3.org/2000/svg">
    <path d="M6.36 9.43C9.87 6.05 15.13 6.05 18.64 9.43L19.21 9.97C19.39 10.14 19.39 10.43 19.21 10.6L17.85 11.9C17.76 11.99 17.62 11.99 17.53 11.9L16.75 11.16C14.29 8.82 10.71 8.82 8.25 11.16L7.42 11.95C7.33 12.04 7.19 12.04 7.1 11.95L5.74 10.65C5.56 10.48 5.56 10.19 5.74 10.02L6.36 9.43ZM21.39 12.07L22.61 13.23C22.79 13.4 22.79 13.69 22.61 13.86L16.77 19.43C16.59 19.6 16.29 19.6 16.11 19.43L11.89 15.39C11.85 15.35 11.78 15.35 11.74 15.39L7.52 19.43C7.34 19.6 7.04 19.6 6.86 19.43L1.02 13.86C0.84 13.69 0.84 13.4 1.02 13.23L2.24 12.07C2.42 11.9 2.72 11.9 2.9 12.07L7.13 16.11C7.17 16.15 7.24 16.15 7.28 16.11L11.5 12.07C11.68 11.9 11.98 11.9 12.16 12.07L16.39 16.11C16.43 16.15 16.5 16.15 16.54 16.11L20.76 12.07C20.94 11.9 21.24 11.9 21.42 12.07H21.39Z" fill="#3B99FC"/>
</svg>
