<?xml version="1.0" encoding="UTF-8"?>
<svg width="1920" height="1080" version="1.1" viewBox="0 0 1920 1080" xmlns="http://www.w3.org/2000/svg">
 <g fill="none" stroke="#2a2a2a" stroke-width="2">
  <path d="m200,300 c100-50,200-50,300-20 s200,50,300,20 s200-50,300-20"/>
  <path d="m150,400 c100-30,200-30,300-10 s200,30,300,10 s200-30,300-10"/>
  <path d="m100,500 c100-20,200-20,300-5 s200,20,300,5 s200-20,300-5"/>
  <path d="m200,600 c100-40,200-40,300-15 s200,40,300,15 s200-40,300-15"/>
  <path d="m300,700 c100-35,200-35,300-12 s200,35,300,12 s200-35,300-12"/>
 </g>
 <g fill="#2a2a2a" fill-opacity="0.1">
  <path d="m400,200 c150-100,300-100,450-50 s300,100,450,50"/>
  <path d="m350,400 c150-80,300-80,450-40 s300,80,450,40"/>
  <path d="m300,600 c150-60,300-60,450-30 s300,60,450,30"/>
  <path d="m250,800 c150-40,300-40,450-20 s300,40,450,20"/>
 </g>
</svg>
