<svg width="18" height="19" viewBox="0 0 18 19" fill="none" xmlns="http://www.w3.org/2000/svg">
<path fill-rule="evenodd" clip-rule="evenodd" d="M13.6506 6.94345L12.7846 6.44345L12.2846 5.57743L10.2192 2C9.8343 1.33333 8.87205 1.33333 8.48714 2L6.42177 5.57734L5.92177 6.44336L5.05574 6.94336L1.47803 9.00896C0.811361 9.39386 0.81136 10.3561 1.47803 10.741L5.05565 12.8065L5.92168 13.3065L6.42168 14.1726L8.4871 17.75C8.872 18.4167 9.83426 18.4167 10.2192 17.75L12.2845 14.1727L12.7845 13.3066L13.6506 12.8066L17.2283 10.741C17.8949 10.3561 17.8949 9.3939 17.2283 9.009L13.6506 6.94345ZM12.0526 7.1755L11.9186 6.94345L9.35317 2.5L6.78779 6.94336L6.65382 7.17541L6.42177 7.30939L1.97803 9.87498L6.42168 12.4405L6.65373 12.5745L6.7877 12.8065L9.35313 17.25L11.9185 12.8066L12.0525 12.5746L12.2845 12.4406L16.7283 9.87502L12.2846 7.30948L12.0526 7.1755Z" fill="#00FFBF"/>
<circle cx="9.47803" cy="10" r="2.5" fill="#00FFBF"/>
</svg>
