<svg width="27" height="27" viewBox="0 0 27 27" fill="none" xmlns="http://www.w3.org/2000/svg">
<rect x="0.431274" y="0.687256" width="26.3033" height="26.3033" rx="13.1517" fill="#2C353D"/>
<path fill-rule="evenodd" clip-rule="evenodd" d="M8.57193 6.19882C5.32552 7.1923 4.16799 10.5498 5.15844 13.4873C6.75165 18.1978 13.5842 21.7297 13.5842 21.7297C13.5842 21.7297 20.4675 18.1434 22.009 13.4873C22.9985 10.5498 21.8336 7.1923 18.5872 6.19882C16.8814 5.67884 14.9272 6.01205 13.5842 6.99851C12.1645 5.98399 10.2796 5.67533 8.57193 6.19882ZM16.8773 8.81788C16.5255 8.72783 16.1673 8.94005 16.0772 9.29188C15.9872 9.64372 16.1994 10.0019 16.5512 10.092C17.7634 10.4022 18.4821 11.2164 18.5652 12.0271C18.6023 12.3884 18.9252 12.6512 19.2865 12.6142C19.6477 12.5771 19.9106 12.2542 19.8735 11.8929C19.7188 10.3847 18.4617 9.22338 16.8773 8.81788Z" fill="#00FFBF"/>
</svg>
